<?xml version="1.0" encoding="utf-8"?>
<!-- Generator: Adobe Illustrator 26.3.1, SVG Export Plug-In . SVG Version: 6.00 Build 0)  -->
<svg version="1.1" id="Layer_1" xmlns:serif="http://www.serif.com/"
	 xmlns="http://www.w3.org/2000/svg" xmlns:xlink="http://www.w3.org/1999/xlink" x="0px" y="0px" viewBox="0 0 120 120"
	 style="enable-background:new 0 0 120 120;" xml:space="preserve">
<style type="text/css">
	.st0{fill-rule:evenodd;clip-rule:evenodd;fill:#D87155;}
</style>
<path class="st0" d="M105.3,0c8.1,0,14.7,6.6,14.7,14.7v90.7c0,8.1-6.6,14.7-14.7,14.7H14.7C6.6,120,0,113.4,0,105.3V14.7
	C0,6.6,6.6,0,14.7,0C14.7,0,105.3,0,105.3,0z M37.6,99.2V46.3H20v52.9H37.6z M101,99.2V68.9c0-16.2-8.7-23.8-20.2-23.8
	c-9.3,0-13.5,5.1-15.8,8.7v-7.5H47.3c0.2,5,0,52.9,0,52.9h17.6V69.7c0-1.6,0.1-3.2,0.6-4.3c1.3-3.2,4.2-6.4,9-6.4
	c6.4,0,8.9,4.9,8.9,12v28.3C83.4,99.2,101,99.2,101,99.2z M28.9,20.8c-6,0-9.9,4-9.9,9.1c0,5.1,3.8,9.1,9.7,9.1h0.1
	c6.1,0,9.9-4.1,9.9-9.1C38.6,24.8,35,20.8,28.9,20.8z"/>
</svg>
