<?xml version="1.0" encoding="utf-8"?>
<!-- Generator: Adobe Illustrator 26.3.1, SVG Export Plug-In . SVG Version: 6.00 Build 0)  -->
<svg version="1.1" id="Layer_1" xmlns="http://www.w3.org/2000/svg" xmlns:xlink="http://www.w3.org/1999/xlink" x="0px" y="0px"
	 viewBox="0 0 25 25" style="enable-background:new 0 0 25 25;" xml:space="preserve">
<style type="text/css">
	.st0{fill-rule:evenodd;clip-rule:evenodd;fill:#D87155;}
</style>
<path class="st0" d="M15.3,24.5c8.3-0.2,9.2-2,9.2-12c0-11-1-12-12-12c-11,0-12,1-12,12c0,10,0.8,11.7,9.2,12
	c0.1-0.1,0.1-0.2,0.1-0.3c0-0.2,0-2.8,0-3.7c-3,0.6-3.7-1.4-3.7-1.4c-0.5-1.2-1.2-1.5-1.2-1.5c-1-0.7,0.1-0.6,0.1-0.6
	c1.1,0.1,1.7,1.1,1.7,1.1c1,1.6,2.6,1.1,3.2,0.9c0.1-0.7,0.4-1.2,0.7-1.4c-2.4-0.3-5-1.2-5-5.2c0-1.2,0.4-2.1,1.1-2.8
	C6.6,9.1,6.2,8,6.8,6.5c0,0,0.9-0.3,3,1.1c0.9-0.2,1.8-0.4,2.7-0.4c0.9,0,1.9,0.1,2.7,0.4c2.1-1.4,3-1.1,3-1.1
	c0.6,1.5,0.2,2.5,0.1,2.8c0.7,0.7,1.1,1.7,1.1,2.8c0,4.1-2.6,5-5,5.2c0.4,0.3,0.7,1,0.7,2c0,0.9,0,2.6,0,3.7c0,0.5,0,1,0,1.1
	C15.2,24.3,15.3,24.4,15.3,24.5L15.3,24.5z"/>
</svg>
