<?xml version="1.0" encoding="UTF-8"?><svg id="Layer_2" xmlns="http://www.w3.org/2000/svg" viewBox="0 0 307.83 144.08"><defs><style>.cls-1{fill:#d87155;}</style></defs><g id="Layer_1-2"><g><g><path class="cls-1" d="M29.82,88.83c0,9.2,6.14,13.57,13.4,13.57,10.17,0,16.63-6.46,18.89-13.08,.48-1.45,.8-3.07,.8-4.52v-13.56c-15.5-.32-33.1,2.42-33.1,17.6Z"/><path class="cls-1" d="M0,0V144.08H144.08V0H0ZM111.19,111.12l-26.96-37.47-7.26,8.08v21.09c.2,2.97,.51,5.78,.97,8.3h-15.02v-9.21c-4.48,5.87-12.66,10.98-23.41,10.98-15.82,0-23.9-11.14-23.9-22.44,0-18.89,16.79-29.23,46.99-29.06v-1.62c0-6.46-1.78-18.09-17.76-18.09-7.27,0-14.86,2.26-20.35,5.81l-3.23-9.36c6.46-4.2,15.82-6.94,25.68-6.94,6.64,0,11.87,1.26,15.98,3.41v-3.41h14.05v37.62h.32c1.94-2.75,4.68-6.14,6.94-8.88l22.93-26.97h17.11l-30.19,32.13,34.38,46.02h-17.28Z"/></g><path class="cls-1" d="M175.05,46l-.52-3.48h-.19c-1.93,2.45-5.23,4.2-9.29,4.2-6.32,0-9.87-4.58-9.87-9.36,0-7.94,7.03-11.94,18.65-11.87v-.52c0-2.06-.84-5.48-6.39-5.48-3.1,0-6.32,.97-8.45,2.32l-1.55-5.16c2.32-1.42,6.39-2.77,11.36-2.77,10.07,0,12.97,6.39,12.97,13.23v11.36c0,2.84,.13,5.61,.45,7.55h-7.16Zm-1.03-15.36c-5.61-.13-10.97,1.1-10.97,5.87,0,3.1,2,4.52,4.52,4.52,3.16,0,5.49-2.07,6.2-4.32,.19-.58,.26-1.23,.26-1.74v-4.32Z"/><path class="cls-1" d="M190.14,23.93c0-3.61-.07-6.65-.26-9.36h6.97l.39,4.71h.19c1.35-2.45,4.77-5.42,10-5.42,5.49,0,11.16,3.55,11.16,13.49v18.65h-7.94V28.25c0-4.52-1.68-7.94-6-7.94-3.16,0-5.36,2.26-6.2,4.65-.26,.71-.32,1.68-.32,2.58v18.46h-8V23.93Z"/><path class="cls-1" d="M244.73,46l-.52-3.48h-.19c-1.94,2.45-5.23,4.2-9.29,4.2-6.32,0-9.87-4.58-9.87-9.36,0-7.94,7.03-11.94,18.65-11.87v-.52c0-2.06-.84-5.48-6.39-5.48-3.1,0-6.32,.97-8.45,2.32l-1.55-5.16c2.32-1.42,6.39-2.77,11.36-2.77,10.07,0,12.97,6.39,12.97,13.23v11.36c0,2.84,.13,5.61,.45,7.55h-7.16Zm-1.03-15.36c-5.61-.13-10.97,1.1-10.97,5.87,0,3.1,2,4.52,4.52,4.52,3.16,0,5.48-2.07,6.19-4.32,.19-.58,.26-1.23,.26-1.74v-4.32Z"/><path class="cls-1" d="M165.3,68.25h.13c.77-1.23,1.68-2.58,2.52-3.68l7.61-10.13h9.55l-11.62,12.84,13.29,18.58h-9.74l-9.03-13.87-2.71,3.16v10.71h-7.94V53.73h7.94v14.52Z"/><path class="cls-1" d="M208.6,85.86l-.52-3.48h-.19c-1.94,2.45-5.23,4.2-9.29,4.2-6.32,0-9.87-4.58-9.87-9.36,0-7.94,7.03-11.94,18.65-11.87v-.52c0-2.06-.84-5.48-6.39-5.48-3.1,0-6.32,.97-8.45,2.32l-1.55-5.16c2.32-1.42,6.39-2.77,11.36-2.77,10.07,0,12.97,6.39,12.97,13.23v11.36c0,2.84,.13,5.61,.45,7.55h-7.16Zm-1.03-15.36c-5.61-.13-10.97,1.1-10.97,5.87,0,3.1,2,4.52,4.52,4.52,3.16,0,5.48-2.07,6.19-4.32,.19-.58,.26-1.23,.26-1.74v-4.32Z"/><path class="cls-1" d="M223.69,64.57c0-4.26-.07-7.29-.26-10.13h6.9l.26,6h.26c1.55-4.45,5.23-6.71,8.58-6.71,.77,0,1.23,.06,1.87,.19v7.49c-.64-.13-1.36-.26-2.32-.26-3.81,0-6.39,2.45-7.1,6-.13,.71-.26,1.55-.26,2.45v16.26h-7.94v-21.29Z"/><path class="cls-1" d="M251.7,72.38c.19,5.68,4.65,8.13,9.68,8.13,3.68,0,6.32-.52,8.71-1.42l1.16,5.49c-2.71,1.1-6.45,1.93-10.97,1.93-10.2,0-16.2-6.26-16.2-15.87,0-8.71,5.29-16.91,15.36-16.91s13.55,8.39,13.55,15.29c0,1.48-.13,2.65-.26,3.36h-21.04Zm13.81-5.55c.06-2.9-1.23-7.68-6.52-7.68-4.9,0-6.97,4.45-7.29,7.68h13.81Z"/><path class="cls-1" d="M279.38,63.79c0-3.61-.07-6.65-.26-9.36h6.97l.39,4.71h.19c1.35-2.45,4.77-5.42,10-5.42,5.49,0,11.16,3.55,11.16,13.49v18.65h-7.94v-17.75c0-4.52-1.68-7.94-6-7.94-3.16,0-5.36,2.26-6.2,4.65-.26,.71-.32,1.68-.32,2.58v18.46h-8v-22.07Z"/><path class="cls-1" d="M186.08,92.69c-.13,2.13-.26,4.71-.26,9.03v17.81c0,6.58-1.35,11.29-4.65,14.26-3.29,2.9-7.81,3.81-12.13,3.81-4,0-8.26-.84-10.97-2.52l1.74-6c2,1.16,5.35,2.39,9.16,2.39,5.16,0,9.03-2.71,9.03-9.49v-2.71h-.13c-1.81,2.77-5.03,4.65-9.16,4.65-7.81,0-13.36-6.45-13.36-15.36,0-10.32,6.71-16.58,14.26-16.58,4.78,0,7.61,2.32,9.1,4.9h.13l.32-4.19h6.9Zm-8.2,12.58c0-.71-.06-1.48-.26-2.13-.84-2.9-3.1-5.1-6.45-5.1-4.45,0-7.74,3.87-7.74,10.26,0,5.36,2.71,9.68,7.68,9.68,2.97,0,5.55-1.94,6.45-4.77,.19-.84,.32-1.94,.32-2.84v-5.1Z"/><path class="cls-1" d="M212.02,124.11l-.52-3.48h-.19c-1.94,2.45-5.23,4.2-9.29,4.2-6.32,0-9.87-4.58-9.87-9.36,0-7.94,7.03-11.94,18.65-11.87v-.52c0-2.06-.84-5.48-6.39-5.48-3.1,0-6.32,.97-8.45,2.32l-1.55-5.16c2.32-1.42,6.39-2.77,11.36-2.77,10.07,0,12.97,6.39,12.97,13.23v11.36c0,2.84,.13,5.61,.45,7.55h-7.16Zm-1.03-15.36c-5.61-.13-10.97,1.1-10.97,5.87,0,3.1,2,4.52,4.52,4.52,3.16,0,5.49-2.07,6.2-4.32,.19-.58,.26-1.23,.26-1.74v-4.32Z"/><path class="cls-1" d="M227.12,102.82c0-4.26-.07-7.29-.26-10.13h6.9l.26,6h.26c1.55-4.45,5.23-6.71,8.58-6.71,.77,0,1.23,.06,1.87,.19v7.49c-.64-.13-1.36-.26-2.32-.26-3.81,0-6.39,2.45-7.1,6-.13,.71-.26,1.55-.26,2.45v16.26h-7.94v-21.29Z"/><path class="cls-1" d="M247.63,119.53l11.81-15.1c1.61-1.93,2.97-3.48,4.65-5.29v-.13h-15.29v-6.32h24.97v4.84l-11.55,14.78c-1.55,1.87-3.03,3.68-4.65,5.36v.13h16.58v6.32h-26.52v-4.58Z"/><path class="cls-1" d="M297.32,124.11l-.52-3.48h-.19c-1.94,2.45-5.23,4.2-9.29,4.2-6.32,0-9.87-4.58-9.87-9.36,0-7.94,7.03-11.94,18.65-11.87v-.52c0-2.06-.84-5.48-6.39-5.48-3.1,0-6.32,.97-8.45,2.32l-1.55-5.16c2.32-1.42,6.39-2.77,11.36-2.77,10.07,0,12.97,6.39,12.97,13.23v11.36c0,2.84,.13,5.61,.45,7.55h-7.16Zm-1.03-15.36c-5.61-.13-10.97,1.1-10.97,5.87,0,3.1,2,4.52,4.52,4.52,3.16,0,5.48-2.07,6.19-4.32,.19-.58,.26-1.23,.26-1.74v-4.32Z"/></g></g></svg>